<?xml version="1.0" encoding="utf-8"?>
<!-- Generator: Adobe Illustrator 16.0.1, SVG Export Plug-In . SVG Version: 6.00 Build 0)  -->
<!DOCTYPE svg PUBLIC "-//W3C//DTD SVG 1.1//EN" "http://www.w3.org/Graphics/SVG/1.1/DTD/svg11.dtd">
<svg version="1.1" id="Layer_1" xmlns="http://www.w3.org/2000/svg" xmlns:xlink="http://www.w3.org/1999/xlink" x="0px" y="0px"
	 width="100px" height="78.5px" viewBox="0 0 100 78.5" enable-background="new 0 0 100 78.5" xml:space="preserve">
<g>
	<path fill-rule="evenodd" clip-rule="evenodd" fill="#FFFFFF" d="M66.54,50.999c-0.315-0.103-0.62-0.155-0.88-0.293
		c-2.129-1.121-4.25-2.256-6.373-3.391c-0.45-0.24-0.687-0.525-0.507-1.122c1.105-3.673,3.296-6.449,6.643-8.348
		c3.543-2.01,7.297-2.348,11.182-1.434c5.614,1.32,9.149,4.854,10.498,10.438c0.948,3.928,0.624,7.8-1.361,11.398
		c-2.242,4.064-5.769,6.289-10.315,7.047c-3.479,0.58-6.713-0.195-9.758-1.763c-4.324-2.224-8.588-4.567-12.861-6.892
		c-4.748-2.583-9.479-5.2-14.214-7.807c-2.56-1.409-5.081-2.896-7.682-4.226c-2.33-1.19-4.756-1.683-7.151-0.082
		c-1.239,0.828-2.055,1.991-2.302,3.456c-0.499,2.965,0.318,5.139,2.81,6.484c3.064,1.656,8.389,0.873,8.959-4.62
		c0.024-0.229,0.057-0.458,0.112-0.898c0.782,0.386,1.487,0.709,2.168,1.074c1.73,0.929,3.434,1.909,5.182,2.799
		c0.567,0.289,0.582,0.598,0.435,1.111c-0.958,3.331-2.926,5.911-5.8,7.81c-2.117,1.399-4.444,2.166-6.99,2.321
		c-3.672,0.223-7.094-0.466-10.123-2.646c-3.473-2.499-5.31-5.926-5.743-10.158c-0.322-3.145,0.015-6.176,1.464-9.021
		c1.838-3.609,4.74-5.906,8.62-7.072c4.446-1.335,8.547-0.356,12.496,1.707c3.325,1.737,6.607,3.555,9.913,5.33
		c0.838,0.449,1.693,0.868,2.598,1.331c0.269-0.448,0.516-0.837,0.741-1.238c2.152-3.848,4.331-7.681,6.434-11.556
		c0.876-1.613,1.643-3.283,1.499-5.23c-0.155-2.098-1.178-3.605-2.956-4.613c-2.843-1.613-6.857-0.383-8.135,2.596
		c-1.285,2.994-0.609,7.951,4.481,8.596c0.382,0.049,0.758,0.148,1.263,0.25c-0.514,0.96-1.008,1.886-1.504,2.811
		c-0.76,1.417-1.556,2.816-2.267,4.257c-0.358,0.729-0.708,0.837-1.507,0.582c-3.762-1.194-6.553-3.542-8.308-7.021
		c-2.335-4.632-2.259-9.355-0.001-14.002c2.053-4.224,5.583-6.622,10.11-7.417c3.67-0.644,7.308-0.308,10.639,1.603
		c4.017,2.302,6.277,5.787,7.012,10.349c0.6,3.725-0.392,7.111-2.073,10.333c-2.349,4.502-4.808,8.946-7.242,13.402
		c-0.245,0.448-0.306,0.711,0.2,0.991c4.228,2.343,8.421,4.752,12.687,7.023c1.208,0.644,2.599,1.163,3.945,1.278
		c3.072,0.265,5.853-2.008,6.06-5.341c0.175-2.832-1.107-4.992-3.773-5.975c-2.773-1.022-7.045-0.216-7.962,3.946
		C66.775,49.736,66.673,50.32,66.54,50.999z"/>
</g>
</svg>
