<?xml version="1.0" encoding="utf-8"?>
<!-- Generator: Adobe Illustrator 16.0.1, SVG Export Plug-In . SVG Version: 6.00 Build 0)  -->
<!DOCTYPE svg PUBLIC "-//W3C//DTD SVG 1.1//EN" "http://www.w3.org/Graphics/SVG/1.1/DTD/svg11.dtd">
<svg version="1.1" id="Layer_1" xmlns="http://www.w3.org/2000/svg" xmlns:xlink="http://www.w3.org/1999/xlink" x="0px" y="0px"
	 width="72.375px" height="91.859px" viewBox="0 0 72.375 91.859" enable-background="new 0 0 72.375 91.859" xml:space="preserve">
<g>
	<path fill="#FFFFFF" d="M25.622,50.993c-0.123,0.183-0.189,0.293-0.266,0.395c-2.388,3.147-4.78,6.292-7.167,9.44
		c-4.226,5.575-8.453,11.149-12.671,16.729C4.3,79.168,3.76,80.97,4.063,82.997c0.412,2.748,2.915,4.627,5.66,4.251
		c1.902-0.261,3.395-1.208,4.564-2.695c0.814-1.035,1.607-2.087,2.404-3.135c7.092-9.334,14.183-18.67,21.275-28.005
		c0.093-0.122,0.194-0.238,0.299-0.366c2.987,2.328,5.938,4.628,8.906,6.942c-0.143,0.196-0.25,0.351-0.364,0.5
		c-4.329,5.699-8.661,11.395-12.985,17.098c-1.219,1.608-1.754,3.406-1.478,5.437c0.331,2.424,2.376,4.312,4.818,4.364
		c2.225,0.046,3.981-0.928,5.372-2.602c0.941-1.133,1.854-2.292,2.746-3.464c3.733-4.9,7.464-9.803,11.174-14.721
		c1.011-1.339,2.144-2.593,2.897-4.122c0.34-0.689,0.876-1.288,1.184-1.988c1.015-2.312,0.771-5.421-1.863-7.366
		c-3.484-2.572-6.851-5.303-10.267-7.966c-0.815-0.636-1.629-1.273-2.457-1.919c0.136-0.186,0.245-0.34,0.359-0.491
		c4.532-5.968,9.065-11.935,13.598-17.902c1.134-1.494,1.674-3.164,1.521-5.047c-0.222-2.735-2.393-4.752-5.129-4.693
		c-2.204,0.047-3.911,1.104-5.22,2.818c-3.517,4.606-7.014,9.227-10.52,13.842c-0.226,0.297-0.454,0.591-0.75,0.977
		c-0.086-1.27-0.167-2.419-0.241-3.569c-0.391-6.12-0.771-12.241-1.174-18.36c-0.116-1.764-0.761-3.327-1.978-4.63
		c-2.547-2.726-6.52-2.407-8.592,0.69c-0.92,1.375-1.282,2.904-1.191,4.545c0.197,3.581,0.406,7.161,0.601,10.741
		c0.188,3.45,0.365,6.899,0.547,10.349c0.091,1.725,0.177,3.45,0.278,5.174c0.017,0.284-0.048,0.42-0.352,0.466
		c-0.462,0.069-0.916,0.19-1.373,0.287c-5.094,1.071-10.176,2.208-15.287,3.19c-3.902,0.75-5.874,3.879-6.155,6.413
		c-0.432,3.887,2.498,6.791,6.333,5.971c4.576-0.978,9.156-1.933,13.735-2.896C25.152,51.073,25.346,51.043,25.622,50.993z
		 M59.401,76.763c0.109-0.774,0.559-1.219,1.245-1.399c0.975-0.256,1.963-0.459,2.946-0.684c1.549-0.354,2.536-1.725,2.384-3.307
		c-0.117-1.214-1.014-2.363-2.749-1.959c-1.851,0.432-3.714,0.808-5.574,1.2c-0.842,0.177-1.163,0.686-0.935,1.521
		c0.143,0.523,0.36,0.648,0.9,0.533c1.93-0.412,3.86-0.825,5.793-1.221c0.143-0.029,0.375,0.019,0.456,0.119
		c0.308,0.379,0.064,0.982-0.417,1.091c-0.912,0.206-1.838,0.365-2.737,0.616c-1.825,0.51-3.158,1.564-3.444,3.548
		c-0.111,0.771-0.014,1.573-0.006,2.361c0,0.034,0.048,0.067,0.086,0.117c2.685-0.575,5.372-1.147,8.058-1.726
		c0.915-0.197,1.235-0.709,0.992-1.562c-0.135-0.473-0.366-0.609-0.844-0.508c-1.945,0.414-3.89,0.827-5.835,1.237
		C59.625,76.761,59.526,76.755,59.401,76.763z"/>
	<path fill-rule="evenodd" clip-rule="evenodd" fill="#FFFFFF" d="M25.622,50.993c-0.276,0.05-0.47,0.08-0.663,0.12
		c-4.579,0.963-9.159,1.918-13.735,2.896c-3.835,0.82-6.766-2.084-6.333-5.971c0.281-2.534,2.252-5.663,6.155-6.413
		c5.111-0.982,10.193-2.119,15.287-3.19c0.458-0.096,0.911-0.218,1.373-0.287c0.304-0.045,0.369-0.182,0.352-0.466
		c-0.102-1.724-0.188-3.449-0.278-5.174c-0.182-3.45-0.359-6.899-0.547-10.349c-0.195-3.581-0.403-7.161-0.601-10.741
		c-0.091-1.641,0.271-3.169,1.191-4.545c2.073-3.097,6.045-3.416,8.592-0.69c1.217,1.303,1.862,2.866,1.978,4.63
		c0.404,6.119,0.784,12.24,1.174,18.36c0.074,1.15,0.155,2.299,0.241,3.569c0.296-0.386,0.524-0.68,0.75-0.977
		c3.505-4.615,7.003-9.235,10.52-13.842c1.309-1.714,3.016-2.771,5.22-2.818c2.737-0.059,4.907,1.958,5.129,4.693
		c0.153,1.883-0.387,3.554-1.521,5.047c-4.533,5.967-9.065,11.935-13.598,17.902c-0.114,0.15-0.223,0.305-0.359,0.491
		c0.827,0.646,1.641,1.284,2.457,1.919c3.417,2.663,6.783,5.394,10.267,7.966c2.635,1.945,2.878,5.055,1.863,7.366
		c-0.308,0.701-0.844,1.299-1.184,1.988c-0.754,1.528-1.887,2.782-2.897,4.122c-3.71,4.918-7.441,9.821-11.174,14.721
		c-0.893,1.172-1.805,2.331-2.746,3.464c-1.391,1.674-3.147,2.648-5.372,2.602c-2.442-0.051-4.487-1.939-4.818-4.364
		c-0.277-2.03,0.258-3.828,1.478-5.437c4.324-5.703,8.656-11.399,12.985-17.098c0.114-0.15,0.222-0.304,0.364-0.5
		c-2.968-2.313-5.919-4.614-8.906-6.942c-0.105,0.128-0.206,0.244-0.299,0.366c-7.092,9.335-14.183,18.67-21.275,28.005
		c-0.796,1.048-1.59,2.1-2.404,3.135c-1.169,1.487-2.662,2.434-4.564,2.695c-2.746,0.376-5.248-1.503-5.66-4.251
		C3.76,80.97,4.3,79.168,5.518,77.557c4.218-5.58,8.445-11.154,12.671-16.729c2.387-3.148,4.779-6.293,7.167-9.44
		C25.433,51.286,25.499,51.176,25.622,50.993z"/>
	<path fill-rule="evenodd" clip-rule="evenodd" fill="#FFFFFF" d="M59.401,76.763c0.125-0.008,0.225-0.002,0.319-0.021
		c1.945-0.411,3.89-0.823,5.835-1.237c0.478-0.102,0.709,0.035,0.844,0.508c0.243,0.852-0.077,1.365-0.992,1.562
		c-2.686,0.578-5.373,1.151-8.058,1.726c-0.038-0.049-0.085-0.083-0.086-0.117c-0.007-0.788-0.105-1.59,0.006-2.361
		c0.286-1.983,1.619-3.038,3.444-3.548c0.899-0.251,1.825-0.41,2.737-0.616c0.481-0.109,0.725-0.712,0.417-1.091
		c-0.082-0.101-0.313-0.148-0.456-0.119c-1.933,0.396-3.863,0.809-5.793,1.221c-0.54,0.115-0.758-0.01-0.9-0.533
		c-0.228-0.835,0.093-1.343,0.935-1.521c1.86-0.392,3.723-0.768,5.574-1.2c1.735-0.404,2.632,0.745,2.749,1.959
		c0.151,1.582-0.835,2.952-2.384,3.307c-0.983,0.225-1.972,0.428-2.946,0.684C59.959,75.544,59.51,75.989,59.401,76.763z"/>
</g>
</svg>
