<?xml version="1.0" encoding="utf-8"?>
<!-- Generator: Adobe Illustrator 16.0.1, SVG Export Plug-In . SVG Version: 6.00 Build 0)  -->
<!DOCTYPE svg PUBLIC "-//W3C//DTD SVG 1.1//EN" "http://www.w3.org/Graphics/SVG/1.1/DTD/svg11.dtd">
<svg version="1.1" id="Layer_1" xmlns="http://www.w3.org/2000/svg" xmlns:xlink="http://www.w3.org/1999/xlink" x="0px" y="0px"
	 width="100px" height="100px" viewBox="0 0 100 100" enable-background="new 0 0 100 100" xml:space="preserve">
<g>
	<path fill="#FFFFFF" d="M49.271,6.251c0.486,0,0.973,0,1.459,0c0.217,0.02,0.433,0.05,0.651,0.057
		c2.774,0.084,5.519,0.413,8.224,1.037c9.981,2.303,18.207,7.444,24.605,15.43c5.616,7.009,8.726,15.04,9.415,24.001
		c0.037,0.468,0.084,0.937,0.125,1.401c0,1.216,0,2.432,0,3.647c-0.021,0.118-0.055,0.234-0.06,0.354
		c-0.099,2.505-0.432,4.98-0.991,7.423c-1.984,8.677-6.179,16.119-12.664,22.221c-7.424,6.986-16.25,10.901-26.409,11.802
		c-0.431,0.038-0.862,0.084-1.293,0.127c-1.556,0-3.112,0-4.667,0c-0.092-0.021-0.183-0.05-0.275-0.061
		c-1.806-0.22-3.628-0.343-5.414-0.672c-8.745-1.619-16.286-5.592-22.644-11.797c-3.828-3.736-6.849-8.054-9.086-12.915
		c-2.192-4.767-3.479-9.768-3.863-15.001c-0.041-0.543-0.089-1.082-0.133-1.626c0-1.095,0-2.188,0-3.28
		c0.02-0.133,0.052-0.262,0.058-0.395c0.098-2.234,0.365-4.449,0.812-6.642c1.707-8.353,5.524-15.604,11.435-21.739
		c4.8-4.981,10.485-8.613,17.017-10.902c3.673-1.288,7.454-2.064,11.338-2.322C47.698,6.348,48.485,6.301,49.271,6.251z
		 M67.731,47.473c0-0.17,0-0.313,0-0.456c0-4.666-0.003-9.334,0.007-13.999c0.001-0.291-0.082-0.42-0.358-0.523
		c-5.686-2.114-11.368-4.239-17.047-6.37c-0.232-0.087-0.424-0.087-0.656,0c-5.72,2.133-11.44,4.26-17.165,6.377
		c-0.277,0.101-0.354,0.238-0.354,0.525c0.01,4.655,0.007,9.31,0.007,13.964c0,0.154,0,0.31,0,0.507c-6.44,0-12.837,0-19.231,0
		c-1.543,17.312,10.771,36.387,31.957,39.355c20.632,2.888,37.963-11.449,41.473-29.113c-0.138,0-0.269,0-0.401,0
		c-1.532,0-3.063,0.015-4.594-0.011c-0.372-0.005-0.509,0.101-0.607,0.461c-2.125,7.785-6.53,13.969-13.258,18.407
		c-6.893,4.548-14.493,6.134-22.641,4.821c-7.822-1.259-14.273-5.022-19.356-11.086c-3.803-4.535-6.095-9.775-6.985-15.625
		c-0.105-0.693-0.166-1.394-0.252-2.141c0.191,0,0.334,0,0.476,0c4.327,0,8.652,0.005,12.979-0.009c0.325,0,0.488,0.091,0.628,0.39
		c2.966,6.305,5.943,12.603,8.919,18.9c0.307,0.65,0.618,1.299,0.928,1.948c0.017-0.009,0.033-0.014,0.049-0.021
		c0-8.764,0-17.526,0-26.319c-0.752,0-1.48-0.012-2.208,0.007c-0.243,0.006-0.365-0.072-0.468-0.292
		c-0.728-1.535-1.471-3.064-2.207-4.596c-0.035-0.072-0.054-0.151-0.091-0.255c3.41,0,6.78,0,10.196,0c0,4.804,0,9.585,0,14.361
		c1.714,0,3.383,0,5.083,0c0-4.8,0-9.571,0-14.355c3.385,0,6.738,0,10.117,0c-0.05,0.116-0.081,0.194-0.117,0.27
		c-0.708,1.518-1.425,3.033-2.121,4.557c-0.109,0.238-0.236,0.314-0.491,0.31c-0.725-0.016-1.45-0.006-2.182-0.006
		c0,8.814,0,17.583,0,26.425c0.081-0.156,0.128-0.24,0.169-0.327c3.216-6.871,6.433-13.74,9.639-20.614
		c0.133-0.288,0.282-0.381,0.595-0.381c6.161,0.012,12.323,0.009,18.483,0.009c0.152,0,0.305,0,0.453,0
		c1.423-20.211-13.831-38.338-34.75-39.649C32.288,11.66,16.787,26.125,13.663,42.274c1.819,0,3.637,0,5.45,0
		c4.174-16.685,21.083-27.37,38.415-23.164c15.508,3.767,23.638,17.407,24.145,28.362C77.037,47.473,72.402,47.473,67.731,47.473z"
		/>
</g>
</svg>
