<?xml version="1.0" encoding="utf-8"?>
<!-- Generator: Adobe Illustrator 16.0.1, SVG Export Plug-In . SVG Version: 6.00 Build 0)  -->
<!DOCTYPE svg PUBLIC "-//W3C//DTD SVG 1.1//EN" "http://www.w3.org/Graphics/SVG/1.1/DTD/svg11.dtd">
<svg version="1.1"
	 id="svg2" xmlns:sodipodi="http://sodipodi.sourceforge.net/DTD/sodipodi-0.dtd" xmlns:inkscape="http://www.inkscape.org/namespaces/inkscape" xmlns:rdf="http://www.w3.org/1999/02/22-rdf-syntax-ns#" xmlns:svg="http://www.w3.org/2000/svg" xmlns:cc="http://creativecommons.org/ns#" xmlns:dc="http://purl.org/dc/elements/1.1/" sodipodi:docname="Team_SoloMid_logo.svg" inkscape:version="0.91 r13725"
	 xmlns="http://www.w3.org/2000/svg" xmlns:xlink="http://www.w3.org/1999/xlink" x="0px" y="0px" width="319.997px" height="320px"
	 viewBox="0 0 319.997 320" enable-background="new 0 0 319.997 320" xml:space="preserve">
<sodipodi:namedview  inkscape:window-height="705" inkscape:window-x="-8" inkscape:window-maximized="1" inkscape:window-y="-8" fit-margin-left="0" fit-margin-top="0" showgrid="false" pagecolor="#ffffff" bordercolor="#666666" borderopacity="1.0" inkscape:zoom="0.35" inkscape:cx="1213.7286" inkscape:cy="921.25449" id="base" inkscape:pageshadow="2" fit-margin-bottom="0" inkscape:pageopacity="0.0" inkscape:current-layer="layer1" inkscape:window-width="1366" fit-margin-right="0" inkscape:document-units="px">
	</sodipodi:namedview>
<g id="layer1" transform="translate(838.72845,-2082.1877)" inkscape:groupmode="layer" inkscape:label="Layer 1">
	<path id="path8060" inkscape:connector-curvature="0" fill="#FFFFFF" d="M-684.321,2082.188
		c-17.695,0.684-35.34,3.994-51.875,10.404c-44.152,16.9-79.817,54.417-94.722,99.24c-4.841,14.913-7.333,30.542-7.81,46.2v9.984
		c0.794,20.805,5.368,41.527,14.075,60.473c15.805,34.592,44.215,63.268,78.732,79.272c16.13,7.408,33.56,11.81,51.19,13.651
		c-0.03-8.018,0-16.033-0.012-24.047c-25.415-3.533-50.3-13.25-70.01-29.913c-5.964-4.907-11.323-10.486-16.462-16.235
		c-23.942-26.5-35.615-63.262-32.717-98.727c2.419-32.6,16.425-64.462,39.815-87.447c23.078-23.04,55.165-35.323,87.308-38.1
		c-0.018,98.413,0,196.83-0.007,295.245h16.041c0.301-98.415-0.564-196.845,0.429-295.25c20.11,1.917,40.045,7.241,57.896,16.82
		c14.285,7.628,27.092,18.018,37.439,30.475c21.058,25.195,32.248,58.16,31.688,90.92c-0.409,32.654-13.176,65.05-35.377,89.037
		c-10.217,10.891-22.03,20.353-35.176,27.48c-15.145,8.27-31.917,13.332-48.975,15.697c-0.008,8.014,0.027,16.025-0.018,24.038
		c24.391-2.446,48.393-10.124,69.082-23.388c12.806-8.127,24.336-18.147,34.721-29.168c19.502-23.202,34.115-51.167,38.57-81.372
		c5.248-35.837-1.174-73.652-19.559-105.015c-8.274-14.235-18.85-27.058-30.799-38.357c-14.734-12.243-30.764-23.21-48.516-30.6
		c-17.145-7.231-35.705-10.843-54.279-11.318h-10.678 M-694.748,2115.323c-28.143,3.664-55.22,16.635-75.35,36.735
		c-23.672,23.665-36.555,56.993-36.68,90.317c29.312,0.317,58.64-0.561,87.94,0.438c0,31.812,0.003,63.622-0.002,95.432
		c-21.83-9.535-41.357-25.967-51.42-47.882c9.175,0,18.347,0,27.522,0c-0.005-8.008,0-16.015-0.003-24.022
		c-20.605,0-41.21,0-61.812,0c5.027,21.56,14.02,42.539,28.343,59.6c20.162,24.522,50.612,38.438,81.472,43.495
		c-0.015-50.362,0-100.723-0.007-151.085c-28.278-0.312-56.575,0.589-84.84-0.439c4.069-16.358,11.78-31.917,23.038-44.528
		c10.28-11.604,23.395-20.562,37.708-26.447c0.01,15.84,0,31.678,0.005,47.515h24.092c0-26.377,0-52.75,0-79.127 M-662.676,2115.331
		c-0.14,0.332-0.204,0.686-0.18,1.048c0.018,84.357-0.013,168.721,0.015,253.078c8.172-1.059,16.201-2.983,24.083-5.357v-217.603
		c5.403,2.903,11.505,4.923,15.905,9.354c0.022,67.055,0.002,134.112,0.01,201.167c8.883-3.43,17.067-8.663,24.029-15.143
		c-0.007-55.209,0-110.422-0.002-165.632c10.02,11.18,16.555,25.135,20.353,39.57c5.835,21.98,4.528,45.82-4.352,66.815
		c-0.204,14.569-0.207,29.185-0.052,43.771c5.635-4.806,10.16-10.773,13.96-17.096c8.713-14.766,13.806-31.453,16.341-48.345
		c2.793-19.573,2.131-39.948-4.182-58.808c-7.758-20.923-20.123-40.38-36.69-55.438c-19.08-17.36-43.875-27.685-69.237-31.38"/>
</g>
</svg>
