<?xml version="1.0" encoding="utf-8"?>
<!-- Generator: Adobe Illustrator 16.0.1, SVG Export Plug-In . SVG Version: 6.00 Build 0)  -->
<!DOCTYPE svg PUBLIC "-//W3C//DTD SVG 1.1//EN" "http://www.w3.org/Graphics/SVG/1.1/DTD/svg11.dtd">
<svg version="1.1" id="Layer_1" xmlns="http://www.w3.org/2000/svg" xmlns:xlink="http://www.w3.org/1999/xlink" x="0px" y="0px"
	 width="100px" height="89.343px" viewBox="0 0 100 89.343" enable-background="new 0 0 100 89.343" xml:space="preserve">
<g>
	<path fill="#FFFFFF" d="M51.713,24.676c-1.16-4.019-1.043-8.352,0.143-12.349c9.64,3.294,19.302,6.532,28.955,9.791
		c-0.04,9.131,0.148,18.277-0.504,27.392c-0.391,4.627-0.984,9.348-2.951,13.604c-1.616,3.562-4.396,6.455-7.513,8.762
		c-3.206-4.176-6.453-8.322-9.664-12.492c-0.442-0.551-0.815-1.256-1.562-1.424c-1.614-0.512-3.085-1.508-4.069-2.896
		c-1.275-1.754-1.845-3.926-2.032-6.061c-0.138-2.283-0.045-4.596,0.437-6.838c0.072,2.703,0.749,5.439,2.314,7.676
		c0.188,0.301,0.528,0.43,0.835,0.566c1.712,0.691,3.426,1.385,5.133,2.088c0.487,0.166,0.655,0.697,0.885,1.104
		c1.07,2.221,2.154,4.471,2.696,6.893c1.396,0.309,2.832,0.184,4.241,0.051c-0.949-1.57-1.954-3.105-2.88-4.691
		c2.013,1.119,3.997,2.281,6.009,3.398c1.362-1.613,2.71-3.24,4.097-4.834c-2.62-5.156-5.26-10.301-7.899-15.447
		c-0.699-1.438-0.455-3.107-0.214-4.627c-3.712-2.468-7.341-5.058-10.994-7.605c1.367-1.201,2.599-2.696,2.976-4.523
		c0.402-1.833-0.21-3.742-1.306-5.219C56.516,19.6,54.1,22.125,51.713,24.676z"/>
	<path fill="#FFFFFF" d="M40.247,14.869c1.923-0.657,3.845-1.323,5.77-1.978c0.189,4.203,1.167,8.334,2.612,12.272
		c-1.595,0.508-3.08,1.29-4.517,2.139C41.938,23.497,40.754,19.203,40.247,14.869z"/>
	<path fill="#FFFFFF" d="M27.529,19.238c1.899-0.664,3.803-1.309,5.706-1.957c1.904,4.477,4.943,8.366,8.227,11.915
		c-0.994,0.835-1.958,1.706-2.864,2.635C33.816,28.768,30.316,24.111,27.529,19.238z"/>
	<path fill="#FFFFFF" d="M19.188,23.949c5.38,4.006,11.258,7.287,17.17,10.43c-0.946,1.222-1.802,2.51-2.61,3.823
		c-5.02-1.567-10.026-3.351-14.553-6.061C19.188,29.409,19.195,26.679,19.188,23.949z"/>
	<path fill="#FFFFFF" d="M61.201,35.178c1.49,0.971,3.074,1.89,4.067,3.419c-0.812,0.104-1.782,0.447-2.507-0.091
		C61.949,37.569,61.617,36.326,61.201,35.178z"/>
	<path fill="#FFFFFF" d="M19.281,39.148c4.203,1.022,8.455,1.836,12.751,2.336c-0.598,1.268-1.075,2.586-1.497,3.922
		c-3.767,0.283-7.553-0.393-11.153-1.475C19.342,42.338,19.301,40.744,19.281,39.148z"/>
	<path fill="#FFFFFF" d="M19.742,50.277c3.382-0.119,6.708-0.799,9.967-1.68c-0.345,1.695-0.601,3.412-0.66,5.145
		c-2.709,1.234-5.586,2.055-8.504,2.627C20.177,54.354,19.929,52.318,19.742,50.277z"/>
	<path fill="#FFFFFF" d="M70.08,52.557c0.562,0.428,1.077,0.926,1.685,1.293c0.609,0.326,1.27,0.543,1.89,0.84
		c-0.883,0.072-1.768,0.127-2.652,0.168C70.701,54.088,70.381,53.326,70.08,52.557z"/>
	<path fill="#FFFFFF" d="M21.645,60.793c2.635-1.146,5.086-2.666,7.423-4.328c0.122,2.242,0.487,4.465,1.097,6.625
		c-1.779,1.324-3.706,2.43-5.688,3.42C23.269,64.748,22.358,62.803,21.645,60.793z"/>
	<path fill="#FFFFFF" d="M27.109,69.598c1.29-1.158,2.536-2.361,3.706-3.639c0.619,2.658,1.246,5.318,1.826,7.988
		C30.677,72.658,28.808,71.223,27.109,69.598z"/>
</g>
</svg>
