<?xml version="1.0" encoding="utf-8"?>
<!-- Generator: Adobe Illustrator 16.0.1, SVG Export Plug-In . SVG Version: 6.00 Build 0)  -->
<!DOCTYPE svg PUBLIC "-//W3C//DTD SVG 1.1//EN" "http://www.w3.org/Graphics/SVG/1.1/DTD/svg11.dtd">
<svg version="1.1" id="Layer_1" xmlns="http://www.w3.org/2000/svg" xmlns:xlink="http://www.w3.org/1999/xlink" x="0px" y="0px"
	 width="400.464px" height="64.319px" viewBox="0 0 400.464 64.319" enable-background="new 0 0 400.464 64.319"
	 xml:space="preserve">
<polygon fill="#111111" points="238.117,5.617 238.117,57.371 392.121,57.379 392.121,5.617 "/>
<g>
	<path fill="#5A5A5A" d="M30.915,5.617h8.721L28.842,57.221h-8.862L9.187,5.617h8.72l6.434,35.808h0.143L30.915,5.617z"/>
	<path fill="#5A5A5A" d="M47.07,57.221h-8.577l9.505-51.604h11.008l9.507,51.604h-8.578l-1.573-11.436h-9.719L47.07,57.221z
		 M49.93,38.064h7.146L53.573,15.91h-0.142L49.93,38.064z"/>
	<path fill="#5A5A5A" d="M73.657,57.221V5.617h8.221l10.791,29.519h0.145V5.617h8.004v51.604H93.1L81.806,24.986h-0.142v32.234
		H73.657z"/>
	<path fill="#5A5A5A" d="M114.543,13.337h-8.577v-7.72h26.016v7.72h-8.576v43.884h-8.862V13.337z"/>
	<path fill="#5A5A5A" d="M141.061,57.221h-8.576l9.504-51.604h11.008l9.507,51.604h-8.578l-1.573-11.436h-9.719L141.061,57.221z
		 M143.92,38.064h7.146l-3.502-22.154h-0.142L143.92,38.064z"/>
	<path fill="#5A5A5A" d="M179.87,31.062h14.509v26.158h-4.288l-1.645-3.859c-2.644,3.145-4.788,4.574-8.935,4.574
		c-7.004,0-11.864-5.002-11.864-13.223V18.125c0-7.289,4.288-13.223,13.009-13.223c8.862,0,13.295,6.434,13.295,14.151v3.288h-8.435
		c0-7.719-1.572-9.722-5.074-9.722c-2.146,0-3.933,1.286-3.933,5.647v26.518c0,3.287,1.073,5.433,4.146,5.433
		c3.574,0,4.86-2.003,4.86-7.147v-5.006h-5.646V31.062z"/>
	<path fill="#5A5A5A" d="M203.386,57.221V5.617h23.73v7.72h-14.867v13.292h11.436v7.721h-11.436v15.151h15.868v7.72H203.386z"/>
</g>
<g>
	<path fill="#505050" d="M261.571,22.468c-0.246-3.022-1.854-3.896-3.218-3.896c-1.951,0-3.022,1.266-3.022,3.459
		c0,5.996,12.282,8.87,12.282,18.424c0,5.801-3.899,9.018-9.553,9.018c-5.605,0-8.822-4.485-9.064-9.748l5.75-0.828
		c0.243,3.558,1.656,5.313,3.607,5.313c2.094,0,3.507-1.123,3.507-3.218c0-6.971-12.281-8.822-12.281-18.911
		c0-5.606,3.411-8.775,9.357-8.775c4.923,0,7.848,3.561,8.385,8.53L261.571,22.468z"/>
	<path fill="#505050" d="M272.189,48.984V13.793h8.676c7.457,0,10.919,2.877,10.919,10.381c0,7.508-3.462,10.384-10.919,10.384
		h-2.632v14.427H272.189z M278.233,29.584h2.339c3.95,0,5.168-1.217,5.168-5.41c0-4.189-1.218-5.408-5.168-5.408h-2.339V29.584z"/>
	<path fill="#505050" d="M296.555,22.323c0-4.971,2.925-9.019,9.26-9.019c6.337,0,9.261,4.048,9.261,9.019v18.131
		c0,4.973-2.924,9.018-9.261,9.018c-6.335,0-9.26-4.045-9.26-9.018V22.323z M302.598,40.309c0,2.632,0.781,3.9,3.217,3.9
		c2.438,0,3.218-1.269,3.218-3.9V22.468c0-2.631-0.78-3.896-3.218-3.896c-2.436,0-3.217,1.266-3.217,3.896V40.309z"/>
	<path fill="#505050" d="M326.964,48.984h-6.044V13.793h8.479c6.777,0,10.236,2.877,10.236,10.381c0,5.656-2.194,7.945-4.239,8.874
		l5.117,15.937h-6.141l-4.291-14.574c-0.779,0.098-2.046,0.147-3.118,0.147V48.984z M326.964,29.584h2.143
		c3.268,0,4.486-1.217,4.486-5.41c0-4.189-1.219-5.408-4.486-5.408h-2.143V29.584z"/>
	<path fill="#505050" d="M348.795,19.059h-5.85v-5.266h17.741v5.266h-5.849v29.926h-6.043V19.059z"/>
	<path fill="#505050" d="M375.258,22.468c-0.245-3.022-1.854-3.896-3.217-3.896c-1.951,0-3.021,1.266-3.021,3.459
		c0,5.996,12.281,8.87,12.281,18.424c0,5.801-3.899,9.018-9.553,9.018c-5.605,0-8.822-4.485-9.065-9.748l5.751-0.828
		c0.242,3.558,1.656,5.313,3.607,5.313c2.094,0,3.507-1.123,3.507-3.218c0-6.971-12.282-8.822-12.282-18.911
		c0-5.606,3.412-8.775,9.358-8.775c4.923,0,7.848,3.561,8.385,8.53L375.258,22.468z"/>
</g>
</svg>
