<?xml version="1.0" encoding="utf-8"?>
<!-- Generator: Adobe Illustrator 16.0.1, SVG Export Plug-In . SVG Version: 6.00 Build 0)  -->
<!DOCTYPE svg PUBLIC "-//W3C//DTD SVG 1.1//EN" "http://www.w3.org/Graphics/SVG/1.1/DTD/svg11.dtd">
<svg version="1.1" id="Layer_1" xmlns="http://www.w3.org/2000/svg" xmlns:xlink="http://www.w3.org/1999/xlink" x="0px" y="0px"
	 width="402.672px" height="58.402px" viewBox="0 0 402.672 58.402" enable-background="new 0 0 402.672 58.402"
	 xml:space="preserve">
<polygon fill="#05BFD9" points="228.529,3.178 228.529,54.771 399.767,54.778 399.767,3.178 "/>
<g>
	<path fill="#FFFFFF" d="M24.327,3.178h8.721L22.253,54.781h-8.862L2.598,3.178h8.72l6.434,35.808h0.143L24.327,3.178z"/>
	<path fill="#FFFFFF" d="M40.482,54.781h-8.577L41.41,3.178h11.008l9.507,51.604h-8.578l-1.573-11.436h-9.719L40.482,54.781z
		 M43.341,35.625h7.146l-3.502-22.154h-0.142L43.341,35.625z"/>
	<path fill="#FFFFFF" d="M67.069,54.781V3.178h8.221l10.791,29.519h0.145V3.178h8.004v51.604h-7.718L75.217,22.547h-0.142v32.234
		H67.069z"/>
	<path fill="#FFFFFF" d="M107.955,10.897h-8.577v-7.72h26.016v7.72h-8.576v43.884h-8.862V10.897z"/>
	<path fill="#FFFFFF" d="M134.472,54.781h-8.576L135.4,3.178h11.008l9.507,51.604h-8.578l-1.573-11.436h-9.719L134.472,54.781z
		 M137.332,35.625h7.146l-3.502-22.154h-0.142L137.332,35.625z"/>
	<path fill="#FFFFFF" d="M173.282,28.622h14.509v26.159h-4.288l-1.645-3.859c-2.644,3.146-4.788,4.574-8.935,4.574
		c-7.004,0-11.864-5.003-11.864-13.223V15.686c0-7.289,4.288-13.223,13.009-13.223c8.862,0,13.295,6.434,13.295,14.15v3.288h-8.435
		c0-7.718-1.572-9.721-5.074-9.721c-2.146,0-3.933,1.286-3.933,5.647v26.518c0,3.287,1.073,5.433,4.146,5.433
		c3.574,0,4.86-2.003,4.86-7.147v-5.006h-5.646V28.622z"/>
	<path fill="#FFFFFF" d="M196.797,54.781V3.178h23.73v7.72h-14.867v13.292h11.436v7.721h-11.436v15.151h15.868v7.72H196.797z"/>
</g>
<g>
	<path fill="#FFFFFF" d="M239.423,46.41V11.328h16.132v5.249h-10.107v9.037h7.775v5.247h-7.775v10.302h10.787v5.247H239.423z"/>
	<path fill="#FFFFFF" d="M271.974,19.976c-0.245-3.013-1.848-3.885-3.208-3.885c-1.944,0-3.012,1.262-3.012,3.449
		c0,5.977,12.245,8.842,12.245,18.366c0,5.783-3.889,8.989-9.524,8.989c-5.589,0-8.795-4.471-9.037-9.719l5.732-0.824
		c0.243,3.546,1.651,5.297,3.596,5.297c2.088,0,3.496-1.12,3.496-3.208c0-6.949-12.243-8.795-12.243-18.852
		c0-5.59,3.401-8.748,9.329-8.748c4.907,0,7.822,3.549,8.358,8.503L271.974,19.976z"/>
	<path fill="#FFFFFF" d="M282.56,46.41V11.328h8.648c7.434,0,10.885,2.867,10.885,10.348c0,7.485-3.451,10.353-10.885,10.353h-2.624
		V46.41H282.56z M288.584,27.07h2.332c3.938,0,5.152-1.215,5.152-5.395c0-4.176-1.215-5.391-5.152-5.391h-2.332V27.07z"/>
	<path fill="#FFFFFF" d="M306.849,19.831c0-4.954,2.915-8.989,9.232-8.989c6.315,0,9.23,4.035,9.23,8.989v18.075
		c0,4.957-2.915,8.989-9.23,8.989c-6.317,0-9.232-4.032-9.232-8.989V19.831z M312.874,37.762c0,2.623,0.778,3.888,3.208,3.888
		c2.428,0,3.206-1.265,3.206-3.888V19.976c0-2.623-0.778-3.885-3.206-3.885c-2.43,0-3.208,1.262-3.208,3.885V37.762z"/>
	<path fill="#FFFFFF" d="M337.164,46.41h-6.025V11.328h8.454c6.755,0,10.204,2.867,10.204,10.348c0,5.64-2.187,7.921-4.227,8.846
		l5.102,15.889h-6.122l-4.277-14.529c-0.777,0.098-2.039,0.147-3.108,0.147V46.41z M337.164,27.07h2.136
		c3.258,0,4.473-1.215,4.473-5.395c0-4.176-1.215-5.391-4.473-5.391h-2.136V27.07z"/>
	<path fill="#FFFFFF" d="M358.926,16.577h-5.83v-5.249h17.686v5.249h-5.83V46.41h-6.025V16.577z"/>
	<path fill="#FFFFFF" d="M385.307,19.976c-0.244-3.013-1.848-3.885-3.206-3.885c-1.945,0-3.013,1.262-3.013,3.449
		c0,5.978,12.243,8.843,12.243,18.366c0,5.783-3.888,8.989-9.523,8.989c-5.588,0-8.795-4.471-9.036-9.719l5.733-0.824
		c0.24,3.547,1.65,5.297,3.596,5.297c2.087,0,3.495-1.12,3.495-3.208c0-6.949-12.243-8.795-12.243-18.852
		c0-5.59,3.4-8.748,9.328-8.748c4.908,0,7.823,3.549,8.359,8.503L385.307,19.976z"/>
</g>
</svg>
